<svg width="64" height="64" viewBox="0 0 64 64" fill="none" xmlns="http://www.w3.org/2000/svg">
  <!-- Brain outline -->
  <path d="M32 8C24 8 18 14 18 22C18 24 18.5 25.8 19.3 27.4C17.3 28.9 16 31.3 16 34C16 36.2 16.9 38.2 18.4 39.6C17.5 41.2 17 43.1 17 45C17 50.5 21.5 55 27 55C28.1 55 29.1 54.8 30.1 54.5C31.3 55.4 32.6 56 34 56C35.4 56 36.7 55.4 37.9 54.5C38.9 54.8 39.9 55 41 55C46.5 55 51 50.5 51 45C51 43.1 50.5 41.2 49.6 39.6C51.1 38.2 52 36.2 52 34C52 31.3 50.7 28.9 48.7 27.4C49.5 25.8 50 24 50 22C50 14 44 8 36 8C35 8 34 8.1 33 8.4C32.7 8.1 32.4 8 32 8Z"
        stroke="#1890ff"
        stroke-width="2"
        stroke-linecap="round"
        stroke-linejoin="round"
        fill="#1890ff"
        fill-opacity="0.1"/>

  <!-- Brain details -->
  <path d="M32 16C32 16 28 20 26 24C24 28 22 32 22 36"
        stroke="#1890ff"
        stroke-width="1.5"
        stroke-linecap="round"
        fill="none"/>
  <path d="M32 16C32 16 36 20 38 24C40 28 42 32 42 36"
        stroke="#1890ff"
        stroke-width="1.5"
        stroke-linecap="round"
        fill="none"/>

  <!-- Neural connections (small dots) -->
  <circle cx="24" cy="26" r="1.5" fill="#40a9ff"/>
  <circle cx="28" cy="32" r="1.5" fill="#40a9ff"/>
  <circle cx="36" cy="32" r="1.5" fill="#40a9ff"/>
  <circle cx="40" cy="26" r="1.5" fill="#40a9ff"/>
  <circle cx="32" cy="40" r="1.5" fill="#40a9ff"/>

  <!-- Glow effect -->
  <circle cx="32" cy="32" r="28" fill="url(#brain-glow)" opacity="0.2"/>

  <defs>
    <radialGradient id="brain-glow" cx="0.5" cy="0.5" r="0.5">
      <stop offset="0%" stop-color="#1890ff" stop-opacity="0.3"/>
      <stop offset="100%" stop-color="#1890ff" stop-opacity="0"/>
    </radialGradient>
  </defs>
</svg>
